HIERARCHY
ROOT Hips
{
  OFFSET 49.9967 94.2768 10.2515
  CHANNELS 6 Xposition Yposition Zposition Zrotation Xrotation Yrotation
  JOINT spine
  {
    OFFSET 0 7.80059 0.448573
    CHANNELS 3 Zrotation Xrotation Yrotation
    JOINT spine1
    {
      OFFSET 0 10.1364 0
      CHANNELS 3 Zrotation Xrotation Yrotation
      JOINT spine2
      {
        OFFSET 0 9.71251 0
        CHANNELS 3 Zrotation Xrotation Yrotation
        JOINT Neck
        {
          OFFSET 0 24.9361 1.18887
          CHANNELS 3 Zrotation Xrotation Yrotation
          JOINT Head
          {
            OFFSET 0 7.53384 0
            CHANNELS 3 Zrotation Xrotation Yrotation
            End Site
            {
              OFFSET 0 18.2361 -6.01402
            }
          }
        }
        JOINT RightShoulder
        {
          OFFSET -4.08965 10.4888 -0.569457
          CHANNELS 3 Zrotation Xrotation Yrotation
          JOINT RightArm
          {
            OFFSET 0 13.757 0
            CHANNELS 3 Zrotation Xrotation Yrotation
            JOINT RightArmRoll
            {
              OFFSET 0 6.94478 0
              CHANNELS 3 Zrotation Xrotation Yrotation
              JOINT RightForeArm
              {
                OFFSET 0 20.2277 0
                CHANNELS 3 Zrotation Xrotation Yrotation
                JOINT RightForeArmRoll
                {
                  OFFSET 0 7.79312 0
                  CHANNELS 3 Zrotation Xrotation Yrotation
                  JOINT RightHand
                  {
                    OFFSET 0 15.6391 0
                    CHANNELS 3 Zrotation Xrotation Yrotation
                    End Site
                    {
                      OFFSET 0 0 0
                    }
                  }
                }
              }
            }
          }
        }
        JOINT LeftShoulder
        {
          OFFSET 4.08965 10.4888 -0.569457
          CHANNELS 3 Zrotation Xrotation Yrotation
          JOINT LeftArm
          {
            OFFSET 0 13.757 0
            CHANNELS 3 Zrotation Xrotation Yrotation
            JOINT LeftArmRoll
            {
              OFFSET 0 6.94478 0
              CHANNELS 3 Zrotation Xrotation Yrotation
              JOINT LeftForeArm
              {
                OFFSET 0 20.2277 0
                CHANNELS 3 Zrotation Xrotation Yrotation
                JOINT LeftForeArmRoll
                {
                  OFFSET 0 7.79312 0
                  CHANNELS 3 Zrotation Xrotation Yrotation
                  JOINT LeftHand
                  {
                    OFFSET 0 15.6391 0
                    CHANNELS 3 Zrotation Xrotation Yrotation
                    End Site
                    {
                      OFFSET 0 0 0
                    }
                  }
                }
              }
            }
          }
        }
      }
    }
  }
  JOINT RightUpLeg
  {
    OFFSET -6.91415 -1.26788 -1.06358
    CHANNELS 3 Zrotation Xrotation Yrotation
    JOINT RightUpLegRoll
    {
      OFFSET 0 18.3378 0
      CHANNELS 3 Zrotation Xrotation Yrotation
      JOINT RightLeg
      {
        OFFSET 0 -22.7085 0
        CHANNELS 3 Zrotation Xrotation Yrotation
        JOINT RightLegRoll
        {
          OFFSET 0 22.7828 0
          CHANNELS 3 Zrotation Xrotation Yrotation
          JOINT RightFoot
          {
            OFFSET 0 18.9629 0
            CHANNELS 3 Zrotation Xrotation Yrotation
            JOINT RightToeBase
            {
              OFFSET 0 15.852 0
              CHANNELS 3 Zrotation Xrotation Yrotation
              End Site
              {
                OFFSET 0.00671906 7.67701 -0.884893
              }
            }
          }
        }
      }
    }
  }
  JOINT LeftUpLeg
  {
    OFFSET 6.91415 -1.26788 -1.06358
    CHANNELS 3 Zrotation Xrotation Yrotation
    JOINT LeftUpLegRoll
    {
      OFFSET 0 18.3379 0
      CHANNELS 3 Zrotation Xrotation Yrotation
      JOINT LeftLeg
      {
        OFFSET 0 22.7084 0
        CHANNELS 3 Zrotation Xrotation Yrotation
        JOINT LeftLegRoll
        {
          OFFSET 0 22.9934 0
          CHANNELS 3 Zrotation Xrotation Yrotation
          JOINT LeftFoot
          {
            OFFSET 0 18.7522 0
            CHANNELS 3 Zrotation Xrotation Yrotation
            JOINT LeftToeBase
            {
              OFFSET 0 15.852 0
              CHANNELS 3 Zrotation Xrotation Yrotation
              End Site
              {
                OFFSET -0.030112 7.67701 -0.884893
              }
            }
          }
        }
      }
    }
  }
}
MOTION
Frames: 10
Frame Time: 0.00208333
53.8249 109.327 18.2213 -0.518101 1.35154 0.624757 -0.22724 -0.0591594 0.0583541 -0.45594 3.88416 0.14602 -0.458373 5.52922 0.153844 -13.7278 6.4039 -1.81484 15.8817 -6.8172 -2.16958 64.8943 -7.37185 -4.7855 98.4132 -6.30366 -6.94489 -1.72031e-005 -1.59677e-006 1.97994e-009 15.1502 63.0384 -11.4158 6.73925e-006 3.50062e-007 -2.99999 8.02888 -4.95141 0.697678 -64.5757 -7.61873 4.91089 -106.925 -1.786 -7.25577 -4.43758e-007 7.93746e-007 -5.23028e-008 -8.93126 41.1976 5.69491 4.23098e-006 -9.41763e-007 3.00001 -8.0301 -4.95137 -0.69766 -179.814 28.5904 2.87149 180 7.01514e-015 178.79 177.277 55.177 179.685 3.04125e-006 -3.99497e-006 0.746745 -17.0588 66.3228 18.2561 8.13649 25.2327 -3.48774 -176.685 28.7994 -4.62235 4.54188e-006 -4.6773e-006 -1.57664 -0.970388 -67.5828 1.18734 2.92614e-007 -5.43383e-006 -1.16865 18.0026 67.0738 -18.8053 -8.13649 25.2327 3.48774 
53.8486 109.181 18.311 -0.55233 1.2847 0.647369 -0.225705 -0.0453189 0.0580363 -0.45289 3.91185 0.145243 -0.455313 5.5569 0.153016 -13.7221 6.31208 -1.82074 15.9124 -6.75744 -2.167 64.8804 -7.37512 -4.78675 98.5343 -6.5372 -6.89269 -1.72031e-005 -1.59677e-006 1.97994e-009 15.1902 62.8938 -11.3996 6.73925e-006 3.50062e-007 -2.99999 8.02888 -4.95141 0.697678 -64.5222 -7.66233 4.93358 -107.036 -1.97586 -7.19084 -4.43758e-007 7.93746e-007 -5.23028e-008 -8.99914 41.2193 5.73029 4.23098e-006 -9.41763e-007 3.00001 -8.0301 -4.95137 -0.69766 -179.72 27.9702 2.66613 180 7.01519e-015 178.806 177.129 53.6956 179.753 3.04125e-006 -3.99497e-006 0.724805 -17.0318 66.3007 18.2409 8.13649 25.2327 -3.48774 -176.591 28.2745 -4.46187 4.54188e-006 -4.6773e-006 -1.54694 -1.60032 -66.1965 0.744478 2.92614e-007 -5.43383e-006 -1.13021 18.0782 67.196 -18.9017 -8.13649 25.2327 3.48774 
53.7894 108.974 18.3257 -0.586479 1.21612 0.669681 -0.223876 -0.0312914 0.0577446 -0.449252 3.93991 0.144481 -0.451664 5.58496 0.152194 -13.7185 6.22422 -1.82566 15.9428 -6.70213 -2.16387 64.8667 -7.37733 -4.78742 98.6604 -6.76335 -6.82741 -1.72031e-005 -1.59677e-006 1.97994e-009 15.2301 62.737 -11.381 6.73925e-006 3.50062e-007 -2.99999 8.02888 -4.95141 0.697678 -64.4711 -7.70152 4.954 -107.146 -2.16391 -7.13232 -4.43758e-007 7.93746e-007 -5.23028e-008 -9.06267 41.232 5.76231 4.23098e-006 -9.41763e-007 3.00001 -8.0301 -4.95137 -0.69766 -179.628 27.3463 2.4623 180 7.01522e-015 178.821 177 52.2104 179.807 3.04125e-006 -3.99497e-006 0.703246 -17.0031 66.2759 18.2238 8.13649 25.2327 -3.48774 -176.496 27.746 -4.3039 4.54188e-006 -4.67731e-006 -1.51765 -2.16454 -64.8041 0.364715 2.92614e-007 -5.43383e-006 -1.09204 18.1554 67.3178 -18.9986 -8.13649 25.2327 3.48774 
53.7453 108.789 18.3625 -0.620066 1.14693 0.692072 -0.221923 -0.0173701 0.0574392 -0.445363 3.96776 0.143677 -0.447763 5.61281 0.151324 -13.7157 6.14039 -1.82993 15.9718 -6.65136 -2.16041 64.8553 -7.37846 -4.78758 98.7887 -6.98204 -6.75096 -1.72031e-005 -1.59677e-006 1.97993e-009 15.27 62.5694 -11.3604 6.73925e-006 3.50062e-007 -2.99999 8.02888 -4.95141 0.697678 -64.4224 -7.73673 4.97238 -107.254 -2.34919 -7.07936 -4.43758e-007 7.93746e-007 -5.23028e-008 -9.12242 41.2353 5.79112 4.23098e-006 -9.41763e-007 3.00001 -8.0301 -4.95137 -0.69766 -179.537 26.7228 2.26035 180 7.01526e-015 178.836 176.887 50.7285 179.85 3.04125e-006 -3.99497e-006 0.682047 -16.9732 66.2487 18.2052 8.13649 25.2327 -3.48774 -176.402 27.2182 -4.14788 4.54188e-006 -4.67731e-006 -1.48884 -2.67212 -63.4126 0.0379233 2.92614e-007 -5.43384e-006 -1.05427 18.2341 67.439 -19.0962 -8.13649 25.2327 3.48774 
53.7211 108.684 18.4141 -0.652605 1.07827 0.714921 -0.220014 -0.00384805 0.0570805 -0.441561 3.99481 0.14277 -0.443948 5.63986 0.150353 -13.7122 6.06066 -1.83392 15.9983 -6.6052 -2.15684 64.8482 -7.37845 -4.78727 98.9161 -7.19321 -6.66524 -1.72031e-005 -1.59677e-006 1.97994e-009 15.3099 62.3926 -11.338 6.73925e-006 3.50062e-007 -2.99999 8.02888 -4.95141 0.697678 -64.3758 -7.76841 4.98892 -107.36 -2.53072 -7.03113 -4.43758e-007 7.93746e-007 -5.23028e-008 -9.17895 41.2286 5.81688 4.23098e-006 -9.41763e-007 3.00001 -8.0301 -4.95137 -0.69766 -179.449 26.1037 2.0606 180 7.0153e-015 178.851 176.79 49.257 179.883 3.04125e-006 -3.99497e-006 0.661187 -16.9426 66.2198 18.1853 8.13649 25.2327 -3.48774 -176.309 26.6956 -3.99317 4.54188e-006 -4.67731e-006 -1.46055 -3.13048 -62.0294 -0.244324 2.92614e-007 -5.43384e-006 -1.01703 18.3146 67.5596 -19.1941 -8.13649 25.2327 3.48774 
53.7511 108.468 18.4539 -0.683613 1.0113 0.738606 -0.218319 0.00898162 0.0566287 -0.438184 4.02047 0.141701 -0.440556 5.66552 0.149228 -13.7068 5.98511 -1.83795 16.0213 -6.56376 -2.15339 64.8476 -7.37727 -4.78655 99.0396 -7.3968 -6.57216 -1.72031e-005 -1.59677e-006 1.97994e-009 15.3498 62.2079 -11.3141 6.73925e-006 3.50062e-007 -2.99999 8.02888 -4.95141 0.697678 -64.3312 -7.79699 5.00385 -107.462 -2.70753 -6.98677 -4.43758e-007 7.93746e-007 -5.23028e-008 -9.23285 41.2114 5.83973 4.23098e-006 -9.41763e-007 3.00001 -8.0301 -4.95137 -0.69766 -179.363 25.4933 1.8633 180 7.01533e-015 178.865 176.707 47.803 179.908 3.04125e-006 -3.99497e-006 0.640646 -16.9117 66.1897 18.1647 8.13649 25.2327 -3.48774 -176.22 26.1827 -3.83917 4.54188e-006 -4.67731e-006 -1.43287 -3.54566 -60.6615 -0.48905 2.92614e-007 -5.43384e-006 -0.980464 18.3968 67.6795 -19.2925 -8.13649 25.2327 3.48774 
53.6895 108.331 18.5079 -0.712606 0.947155 0.763507 -0.217006 0.0208258 0.056044 -0.435571 4.04417 0.140413 -0.437926 5.68922 0.147895 -13.6982 5.91381 -1.84239 16.0395 -6.5271 -2.1503 64.8556 -7.37488 -4.78549 99.1561 -7.59274 -6.47362 -1.72031e-005 -1.59677e-006 1.97994e-009 15.3899 62.0169 -11.2891 6.73925e-006 3.50062e-007 -2.99999 8.02888 -4.95141 0.697678 -64.2885 -7.82291 5.01737 -107.559 -2.87865 -6.94545 -4.43758e-007 7.93746e-007 -5.23028e-008 -9.28467 41.1831 5.85984 4.23098e-006 -9.41763e-007 3.00001 -8.0301 -4.95137 -0.69766 -179.281 24.8955 1.66871 180 7.01537e-015 178.879 176.638 46.3736 179.926 3.04125e-006 -3.99497e-006 0.620403 -16.8811 66.1589 18.1435 8.13649 25.2327 -3.48774 -176.134 25.684 -3.6852 4.54188e-006 -4.67731e-006 -1.40584 -3.92254 -59.3162 -0.702119 2.92614e-007 -5.43384e-006 -0.944695 18.4808 67.7987 -19.3912 -8.13649 25.2327 3.48774 
53.693 108.091 18.4856 -0.7391 0.886981 0.790002 -0.216245 0.0313912 0.0552867 -0.434058 4.06531 0.138844 -0.436395 5.71036 0.1463 -13.685 5.84683 -1.84758 16.0519 -6.49532 -2.14778 64.8743 -7.37125 -4.78415 99.2625 -7.78096 -6.37156 -1.72031e-005 -1.59677e-006 1.97994e-009 15.4303 61.821 -11.2632 6.73925e-006 3.50062e-007 -2.99999 8.02888 -4.95141 0.697678 -64.2473 -7.84661 5.02971 -107.652 -3.04311 -6.90631 -4.43758e-007 7.93746e-007 -5.23028e-008 -9.33501 41.1434 5.87735 4.23098e-006 -9.41763e-007 3.00001 -8.0301 -4.95137 -0.69766 -179.203 24.3147 1.47703 180 7.0154e-015 178.892 176.584 44.976 179.939 3.04125e-006 -3.99497e-006 0.60044 -16.8511 66.1279 18.1223 8.13649 25.2327 -3.48774 -176.053 25.2037 -3.53062 4.54188e-006 -4.67731e-006 -1.37953 -4.26509 -58.0003 -0.888437 2.92614e-007 -5.43384e-006 -0.909859 18.5668 67.917 -19.49 -8.13649 25.2327 3.48774 
53.6605 107.944 18.5416 -0.762614 0.831922 0.818469 -0.216205 0.040385 0.054317 -0.433984 4.0833 0.136938 -0.4363 5.72835 0.144391 -13.666 5.78425 -1.85385 16.0573 -6.4685 -2.14606 64.9058 -7.36633 -4.78258 99.3557 -7.96138 -6.26789 -1.72031e-005 -1.59677e-006 1.97994e-009 15.4709 61.6217 -11.2366 6.73925e-006 3.50062e-007 -2.99999 8.02888 -4.95141 0.697678 -64.2077 -7.86854 5.04107 -107.738 -3.19995 -6.86851 -4.43758e-007 7.93746e-007 -5.23028e-008 -9.38443 41.0917 5.89242 4.23098e-006 -9.41763e-007 3.00001 -8.0301 -4.95137 -0.69766 -179.13 23.7547 1.28843 180 7.01543e-015 178.905 176.543 43.6172 179.948 3.04125e-006 -3.99497e-006 0.580734 -16.8223 66.0973 18.1014 8.13649 25.2327 -3.48774 -175.977 24.7465 -3.37472 4.54188e-006 -4.67731e-006 -1.35399 -4.57647 -56.721 -1.05212 2.92614e-007 -5.43384e-006 -0.876086 18.6547 68.0345 -19.589 -8.13649 25.2327 3.48774 
53.6676 107.715 18.5617 -0.782667 0.783124 0.849288 -0.217055 0.0475138 0.0530953 -0.435686 4.09756 0.134633 -0.437978 5.74261 0.142113 -13.6397 5.72614 -1.86157 16.0547 -6.44672 -2.14537 64.9523 -7.3601 -4.78084 99.4325 -8.13394 -6.16453 -1.72031e-005 -1.59677e-006 1.97993e-009 15.5119 61.4204 -11.2097 6.73925e-006 3.50062e-007 -2.99999 8.02888 -4.95141 0.697678 -64.1693 -7.88913 5.05167 -107.817 -3.34818 -6.8312 -4.43758e-007 7.93746e-007 -5.23028e-008 -9.43353 41.0274 5.90523 4.23098e-006 -9.41763e-007 3.00001 -8.0301 -4.95137 -0.69766 -179.062 23.2199 1.1031 180 7.01546e-015 178.917 176.515 42.3044 179.955 3.04125e-006 -3.99497e-006 0.561265 -16.795 66.0675 18.0811 8.13649 25.2327 -3.48774 -175.909 24.3168 -3.21681 4.54188e-006 -4.67731e-006 -1.3293 -4.85924 -55.4853 -1.19664 2.92614e-007 -5.43383e-006 -0.84351 18.7447 68.151 -19.6879 -8.13649 25.2327 3.48774 
